# Blender v2.82 (sub 7) OBJ File: ''
# www.blender.org
mtllib Jetpack.mtl
o Jetpack_Cone.001
v -1.558382 -0.235596 -0.251170
v -0.714430 -0.235596 0.155256
v -0.505991 -0.235596 1.068487
v -1.090024 -0.235596 1.800841
v -1.558382 1.014925 0.828285
v -2.026740 -0.235596 1.800841
v -2.610773 -0.235596 1.068487
v -2.402334 -0.235596 0.155256
v 1.576091 -0.235596 -0.251170
v 2.420043 -0.235596 0.155256
v 2.628482 -0.235596 1.068487
v 2.044449 -0.235596 1.800841
v 1.576091 1.014925 0.828285
v 1.107733 -0.235596 1.800841
v 0.523700 -0.235596 1.068487
v 0.732139 -0.235596 0.155256
v -1.558382 -4.168710 -0.171715
v -0.776550 -4.168710 0.204796
v -0.583454 -4.168710 1.050806
v -1.124498 -4.168710 1.729254
v -1.992266 -4.168710 1.729254
v -2.533310 -4.168710 1.050807
v -2.340214 -4.168710 0.204796
v 1.576091 -4.168710 -0.171715
v 2.357923 -4.168710 0.204796
v 2.551019 -4.168710 1.050806
v 2.009974 -4.168710 1.729254
v 1.142207 -4.168710 1.729254
v 0.601163 -4.168710 1.050807
v 0.794259 -4.168710 0.204796
v -1.558382 -4.357604 -0.073266
v -0.853521 -4.357604 0.266177
v -0.679434 -4.357604 1.028900
v -1.167214 -4.357604 1.640555
v -1.949551 -4.357604 1.640555
v -2.437330 -4.357604 1.028900
v -2.263243 -4.357604 0.266177
v 1.576091 -4.357604 -0.073266
v 2.280952 -4.357604 0.266177
v 2.455039 -4.357604 1.028900
v 1.967259 -4.357604 1.640555
v 1.184922 -4.357604 1.640555
v 0.697143 -4.357604 1.028900
v 0.871230 -4.357604 0.266177
v -1.558382 -4.564208 -0.073266
v -0.853521 -4.564208 0.266177
v -0.679434 -4.564208 1.028900
v -1.167214 -4.564208 1.640555
v -1.949551 -4.564208 1.640555
v -2.437330 -4.564208 1.028900
v -2.263243 -4.564208 0.266177
v 1.576091 -4.564208 -0.073266
v 2.280952 -4.564208 0.266177
v 2.455039 -4.564208 1.028900
v 1.967259 -4.564208 1.640555
v 1.184922 -4.564208 1.640555
v 0.697143 -4.564208 1.028900
v 0.871230 -4.564208 0.266177
v -1.558382 -4.682267 -0.207673
v -0.748437 -4.682267 0.182376
v -0.548397 -4.682267 1.058808
v -1.108897 -4.682267 1.761652
v -2.007867 -4.682267 1.761651
v -2.568367 -4.682267 1.058808
v -2.368327 -4.682267 0.182376
v 1.576091 -4.682267 -0.207673
v 2.386036 -4.682267 0.182376
v 2.586075 -4.682267 1.058808
v 2.025576 -4.682267 1.761652
v 1.126606 -4.682267 1.761651
v 0.566106 -4.682267 1.058808
v 0.766146 -4.682267 0.182376
v -1.558382 -4.924289 -0.207673
v -0.748437 -4.924289 0.182376
v -0.548397 -4.924289 1.058808
v -1.108897 -4.924289 1.761652
v -2.007867 -4.924289 1.761651
v -2.568367 -4.924289 1.058808
v -2.368327 -4.924289 0.182376
v 1.576091 -4.924289 -0.207673
v 2.386036 -4.924289 0.182376
v 2.586075 -4.924289 1.058808
v 2.025576 -4.924289 1.761652
v 1.126606 -4.924289 1.761651
v 0.566106 -4.924289 1.058808
v 0.766146 -4.924289 0.182376
v 2.551019 -3.353629 1.050806
v 2.357923 -3.353629 0.204796
v 0.794259 -3.353629 0.204796
v 0.601163 -3.353629 1.050807
v 2.009974 -3.353629 1.729254
v 1.576091 -3.353629 -0.171715
v 1.142207 -3.353629 1.729254
v -2.533310 -3.353629 1.050807
v -1.992266 -3.353629 1.729254
v -0.583454 -3.353629 1.050806
v -0.776550 -3.353629 0.204796
v -2.340214 -3.353629 0.204796
v -1.124498 -3.353629 1.729254
v -1.558382 -3.353629 -0.171715
v 2.551019 -3.761169 1.050806
v 0.794259 -3.761169 0.204796
v 2.009974 -3.761169 1.729254
v 1.576091 -3.761169 -0.171715
v 1.142207 -3.761169 1.729254
v 2.357923 -3.761169 0.204796
v 0.601163 -3.761169 1.050807
v -2.533310 -3.761169 1.050807
v -0.583454 -3.761169 1.050806
v -2.340214 -3.761169 0.204796
v -1.124498 -3.761169 1.729254
v -1.558382 -3.761169 -0.171715
v -1.992266 -3.761169 1.729254
v -0.776550 -3.761169 0.204796
v 2.386355 -3.768580 0.182121
v 2.386355 -3.346218 0.182121
v 0.565708 -3.768580 1.058899
v 0.565708 -3.346218 1.058899
v 1.126428 -3.346218 1.762020
v 2.025753 -3.346218 1.762020
v 1.576091 -3.346218 -0.208081
v 0.765827 -3.346218 0.182121
v 2.586473 -3.346218 1.058899
v -2.008044 -3.768580 1.762020
v -2.008044 -3.346218 1.762020
v -0.748118 -3.768580 0.182121
v -0.748118 -3.346218 0.182121
v -1.108719 -3.346218 1.762020
v -1.558382 -3.346218 -0.208081
v -2.368646 -3.346218 0.182121
v -0.547999 -3.346218 1.058899
v -2.568765 -3.346218 1.058899
v 2.586473 -3.768580 1.058899
v 0.765827 -3.768580 0.182121
v 2.025753 -3.768580 1.762020
v 1.576091 -3.768580 -0.208081
v 1.126428 -3.768580 1.762020
v -2.568765 -3.768580 1.058899
v -0.547999 -3.768580 1.058899
v -2.368646 -3.768580 0.182121
v -1.108719 -3.768580 1.762020
v -1.558382 -3.768580 -0.208081
v -1.992266 -0.235109 1.729254
v -0.776550 -0.235109 0.204796
v -2.533310 -0.235109 1.050807
v -0.583454 -0.235109 1.050806
v -2.340214 -0.235109 0.204796
v -1.124498 -0.235109 1.729254
v -1.558382 -0.235109 -0.171715
v 2.357923 -0.235069 0.204796
v 0.601163 -0.235069 1.050807
v 2.551019 -0.235069 1.050806
v 0.794259 -0.235069 0.204796
v 2.009974 -0.235069 1.729254
v 1.576091 -0.235069 -0.171715
v 1.142207 -0.235069 1.729254
v -1.558382 -4.840131 -0.099192
v -0.833251 -4.840131 0.250013
v -0.654158 -4.840131 1.034669
v -1.155965 -4.840131 1.663914
v -1.960799 -4.840131 1.663914
v -2.462606 -4.840131 1.034669
v -2.283513 -4.840131 0.250013
v 1.576091 -4.840131 -0.099192
v 2.301223 -4.840131 0.250013
v 2.480315 -4.840131 1.034669
v 1.978508 -4.840131 1.663914
v 1.173673 -4.840131 1.663914
v 0.671867 -4.840131 1.034669
v 0.850959 -4.840131 0.250013
vt 0.160846 0.574384
vt 0.160846 0.574384
vt 0.160846 0.574384
vt 0.160846 0.574384
vt 0.160846 0.574384
vt 0.160846 0.574384
vt 0.160846 0.574384
vt 0.160846 0.574384
vt 0.160846 0.574384
vt 0.160846 0.574384
vt 0.160846 0.574384
vt 0.160846 0.574384
vt 0.160846 0.574384
vt 0.160846 0.574384
vt 0.160846 0.574384
vt 0.160846 0.574384
vt 0.160846 0.574384
vt 0.160846 0.574384
vt 0.160846 0.574384
vt 0.160846 0.574384
vt 0.160846 0.574384
vt 0.160846 0.574384
vt 0.160846 0.574384
vt 0.160846 0.574384
vt 0.160846 0.574384
vt 0.160846 0.574384
vt 0.160846 0.574384
vt 0.160846 0.574384
vt 0.073850 0.517805
vt 0.073850 0.517805
vt 0.073850 0.517805
vt 0.073850 0.517805
vt 0.073850 0.517805
vt 0.073850 0.517805
vt 0.073850 0.517805
vt 0.073850 0.517805
vt 0.926471 0.511884
vt 0.926471 0.511884
vt 0.926471 0.511884
vt 0.926471 0.511884
vt 0.073850 0.517805
vt 0.073850 0.517805
vt 0.073850 0.517805
vt 0.073850 0.517805
vt 0.073850 0.517805
vt 0.073850 0.517805
vt 0.073850 0.517805
vt 0.073850 0.517805
vt 0.926471 0.511884
vt 0.926471 0.511884
vt 0.926471 0.511884
vt 0.926471 0.511884
vt 0.925551 0.543134
vt 0.925551 0.543134
vt 0.925551 0.543134
vt 0.925551 0.543134
vt 0.925551 0.543134
vt 0.925551 0.543134
vt 0.925551 0.543134
vt 0.925551 0.543134
vt 0.926471 0.511884
vt 0.926471 0.511884
vt 0.926471 0.511884
vt 0.926471 0.511884
vt 0.926471 0.511884
vt 0.926471 0.511884
vt 0.926471 0.511884
vt 0.926471 0.511884
vt 0.926471 0.511884
vt 0.926471 0.511884
vt 0.926471 0.511884
vt 0.926471 0.511884
vt 0.926471 0.511884
vt 0.926471 0.511884
vt 0.926471 0.511884
vt 0.926471 0.511884
vt 0.926471 0.511884
vt 0.926471 0.511884
vt 0.926471 0.511884
vt 0.926471 0.511884
vt 0.925551 0.574384
vt 0.925551 0.574384
vt 0.925551 0.574384
vt 0.925551 0.574384
vt 0.925551 0.574384
vt 0.925551 0.574384
vt 0.925551 0.574384
vt 0.925551 0.574384
vt 0.925551 0.543134
vt 0.925551 0.543134
vt 0.925551 0.543134
vt 0.925551 0.543134
vt 0.925551 0.543134
vt 0.925551 0.543134
vt 0.925551 0.543134
vt 0.925551 0.543134
vt 0.925551 0.543134
vt 0.925551 0.543134
vt 0.925551 0.543134
vt 0.925551 0.543134
vt 0.925551 0.543134
vt 0.925551 0.543134
vt 0.925551 0.543134
vt 0.925551 0.543134
vt 0.925551 0.543134
vt 0.925551 0.543134
vt 0.925551 0.543134
vt 0.925551 0.543134
vt 0.160846 0.574384
vt 0.160846 0.574384
vt 0.160846 0.574384
vt 0.160846 0.574384
vt 0.160846 0.574384
vt 0.160846 0.574384
vt 0.160846 0.574384
vt 0.160846 0.574384
vt 0.925551 0.574384
vt 0.925551 0.574384
vt 0.925551 0.574384
vt 0.925551 0.574384
vt 0.925551 0.574384
vt 0.925551 0.574384
vt 0.925551 0.574384
vt 0.925551 0.574384
vt 0.925551 0.574384
vt 0.925551 0.574384
vt 0.925551 0.574384
vt 0.925551 0.574384
vt 0.925551 0.574384
vt 0.925551 0.574384
vt 0.925551 0.574384
vt 0.925551 0.574384
vt 0.925551 0.574384
vt 0.925551 0.574384
vt 0.925551 0.574384
vt 0.925551 0.574384
vt 0.160846 0.574384
vt 0.160846 0.574384
vt 0.160846 0.574384
vt 0.160846 0.574384
vt 0.160846 0.574384
vt 0.160846 0.574384
vt 0.160846 0.574384
vt 0.160846 0.574384
vt 0.160846 0.574384
vt 0.160846 0.574384
vt 0.160846 0.574384
vt 0.160846 0.574384
vt 0.160846 0.574384
vt 0.160846 0.574384
vt 0.160846 0.574384
vt 0.160846 0.574384
vt 0.160846 0.574384
vt 0.160846 0.574384
vt 0.160846 0.574384
vt 0.160846 0.574384
vt 0.925571 0.478433
vt 0.925571 0.478433
vt 0.925571 0.478433
vt 0.925571 0.478433
vt 0.925571 0.478433
vt 0.925571 0.478433
vt 0.925571 0.478433
vt 0.925571 0.478433
vt 0.925571 0.478433
vt 0.925571 0.478433
vt 0.925571 0.478433
vt 0.925571 0.478433
vt 0.925571 0.478433
vt 0.925571 0.478433
vt 0.925571 0.478433
vt 0.925571 0.478433
vt 0.925571 0.478433
vt 0.925571 0.478433
vt 0.925571 0.478433
vt 0.925571 0.478433
vt 0.925571 0.478433
vt 0.925571 0.478433
vt 0.925571 0.478433
vt 0.925571 0.478433
vt 0.925571 0.478433
vt 0.925571 0.478433
vt 0.925571 0.478433
vt 0.925571 0.478433
vt 0.868566 0.386884
vt 0.868566 0.386884
vt 0.868566 0.386884
vt 0.868566 0.386884
vt 0.868585 0.478433
vt 0.868585 0.478433
vt 0.868585 0.478433
vt 0.868585 0.478433
vt 0.868566 0.386884
vt 0.868566 0.386884
vt 0.868566 0.386884
vt 0.868566 0.386884
vt 0.868585 0.478433
vt 0.868585 0.478433
vt 0.868585 0.478433
vt 0.868585 0.478433
vt 0.868566 0.386884
vt 0.868566 0.386884
vt 0.868585 0.478433
vt 0.868585 0.478433
vt 0.868585 0.478433
vt 0.868585 0.478433
vt 0.868566 0.386884
vt 0.868566 0.386884
vt 0.868566 0.386884
vt 0.868566 0.386884
vt 0.868585 0.478433
vt 0.868585 0.478433
vt 0.868566 0.386884
vt 0.868566 0.386884
vt 0.868566 0.386884
vt 0.868566 0.386884
vt 0.868585 0.478433
vt 0.868585 0.478433
vt 0.868566 0.386884
vt 0.868566 0.386884
vt 0.868585 0.478433
vt 0.868585 0.478433
vt 0.868585 0.478433
vt 0.868585 0.478433
vt 0.868585 0.478433
vt 0.868585 0.478433
vt 0.868585 0.478433
vt 0.868585 0.478433
vt 0.868566 0.511884
vt 0.868566 0.511884
vt 0.868566 0.511884
vt 0.868566 0.511884
vt 0.868566 0.511884
vt 0.868566 0.511884
vt 0.868566 0.511884
vt 0.868566 0.511884
vt 0.868566 0.511884
vt 0.868566 0.511884
vt 0.868566 0.511884
vt 0.868566 0.511884
vt 0.868566 0.511884
vt 0.868566 0.511884
vt 0.868566 0.511884
vt 0.868566 0.511884
vt 0.868566 0.511884
vt 0.868566 0.511884
vt 0.868566 0.511884
vt 0.868566 0.511884
vt 0.868566 0.511884
vt 0.868566 0.511884
vt 0.868566 0.511884
vt 0.868566 0.511884
vt 0.868566 0.511884
vt 0.868566 0.511884
vt 0.868566 0.511884
vt 0.868566 0.511884
vt 0.868585 0.478433
vt 0.868585 0.478433
vt 0.868566 0.386884
vt 0.868566 0.386884
vt 0.868585 0.478433
vt 0.868585 0.478433
vt 0.868566 0.386884
vt 0.868566 0.386884
vt 0.868566 0.386884
vt 0.868566 0.386884
vt 0.868566 0.386884
vt 0.868566 0.386884
vt 0.925571 0.478433
vt 0.925571 0.478433
vt 0.925571 0.478433
vt 0.925571 0.478433
vt 0.925571 0.478433
vt 0.925571 0.478433
vt 0.925571 0.478433
vt 0.925571 0.478433
vt 0.925571 0.478433
vt 0.925571 0.478433
vt 0.925571 0.478433
vt 0.925571 0.478433
vt 0.925571 0.478433
vt 0.925571 0.478433
vn 0.6361 -0.7578 0.1452
vn 0.0000 -1.0000 0.0000
vn 0.2831 -0.7578 0.5879
vn -0.2831 -0.7578 0.5879
vn -0.6361 -0.7578 0.1452
vn -0.5101 -0.7578 -0.4068
vn 0.0000 -0.7578 -0.6525
vn 0.5101 -0.7578 -0.4068
vn 0.0000 -0.3460 -0.9382
vn 0.0000 1.0000 0.0000
vn 0.7335 -0.3460 -0.5849
vn 0.9147 -0.3460 0.2087
vn 0.4071 -0.3460 0.8453
vn -0.4071 -0.3460 0.8453
vn -0.9147 -0.3460 0.2087
vn -0.7335 -0.3460 -0.5849
vn -0.1996 -0.8879 0.4145
vn -0.4485 -0.8879 0.1024
vn -0.9501 -0.2240 0.2169
vn -0.4228 -0.2240 0.8780
vn 0.0000 -0.3462 -0.9381
vn 0.7335 -0.3462 -0.5849
vn 0.9146 -0.3462 0.2087
vn 0.4070 -0.3462 0.8452
vn -0.4070 -0.3462 0.8452
vn -0.9146 -0.3462 0.2087
vn -0.7335 -0.3462 -0.5849
vn 0.3597 -0.8879 -0.2868
vn 0.4485 -0.8879 0.1024
vn 0.9501 -0.2240 0.2169
vn 0.7620 -0.2240 -0.6076
vn -0.7620 -0.2240 -0.6076
vn -0.7560 -0.2547 -0.6029
vn -0.9428 -0.2547 0.2152
vn -0.4196 -0.2547 0.8712
vn -0.3597 -0.8879 -0.2868
vn 0.1996 -0.8879 0.4145
vn 0.4228 -0.2240 0.8780
vn 0.0000 -0.8879 -0.4600
vn 0.0000 -0.2240 -0.9746
vn 0.0000 -0.2547 -0.9670
vn 0.0000 0.4625 -0.8866
vn -0.6932 0.4625 -0.5528
vn 0.7560 -0.2547 -0.6029
vn 0.9428 -0.2547 0.2152
vn 0.4196 -0.2547 0.8712
vn 0.6932 0.4625 -0.5528
vn 0.7248 0.3747 -0.5781
vn 0.0000 0.3747 -0.9271
vn 0.8644 0.4625 0.1973
vn 0.3847 0.4625 0.7988
vn -0.3847 0.4625 0.7988
vn -0.8644 0.4625 0.1973
vn 0.9039 0.3747 0.2063
vn 0.4022 0.3747 0.8353
vn 0.2612 -0.7985 0.5424
vn 0.5869 -0.7985 0.1339
vn -0.4022 0.3747 0.8353
vn -0.9039 0.3747 0.2063
vn -0.7248 0.3747 -0.5781
vn -0.2612 -0.7985 0.5424
vn -0.5869 -0.7985 0.1339
vn -0.4707 -0.7985 -0.3753
vn 0.0000 -0.7985 -0.6020
vn 0.4707 -0.7985 -0.3753
vn -0.2474 -0.8215 0.5137
vn -0.5559 -0.8215 0.1269
vn -0.4485 0.8879 0.1024
vn -0.1996 0.8879 0.4145
vn 0.2474 -0.8215 0.5137
vn 0.1996 0.8879 0.4145
vn 0.0000 -0.8215 -0.5702
vn 0.4458 -0.8215 -0.3555
vn 0.3597 0.8879 -0.2868
vn 0.0000 0.8879 -0.4600
vn -0.4458 -0.8215 -0.3555
vn -0.3597 0.8879 -0.2868
vn 0.5559 -0.8215 0.1269
vn 0.4485 0.8879 0.1024
vn 0.2475 -0.8213 0.5140
vn -0.2475 -0.8213 0.5140
vn 0.0000 -0.8213 -0.5705
vn 0.4460 -0.8213 -0.3557
vn -0.4460 -0.8213 -0.3557
vn 0.5562 -0.8213 0.1269
vn -0.5562 -0.8213 0.1269
vn -0.5733 -0.6800 -0.4572
vn 0.0000 -0.6800 -0.7332
vn 0.3181 0.6800 0.6606
vn 0.7149 0.6800 0.1632
vn 0.5733 -0.6800 -0.4572
vn 0.0000 0.6800 -0.7332
vn -0.5733 0.6800 -0.4572
vn 0.3181 -0.6800 0.6606
vn -0.3181 -0.6800 0.6606
vn 0.5733 0.6800 -0.4572
vn -0.7149 -0.6800 0.1632
vn -0.3181 0.6800 0.6606
vn -0.7149 0.6800 0.1632
vn 0.7149 -0.6800 0.1632
usemtl Material.002
s off
f 78/1/1 79/2/1 163/3/1 162/4/1
f 85/5/1 86/6/1 170/7/1 169/8/1
f 157/9/2 158/10/2 159/11/2 160/12/2 161/13/2 162/4/2 163/3/2
f 164/14/2 165/15/2 166/16/2 167/17/2 168/18/2 169/8/2 170/7/2
f 86/6/3 80/19/3 164/14/3 170/7/3
f 79/2/3 73/20/3 157/9/3 163/3/3
f 80/19/4 81/21/4 165/15/4 164/14/4
f 73/20/4 74/22/4 158/10/4 157/9/4
f 81/21/5 82/23/5 166/16/5 165/15/5
f 74/22/5 75/24/5 159/11/5 158/10/5
f 82/23/6 83/25/6 167/17/6 166/16/6
f 75/24/6 76/26/6 160/12/6 159/11/6
f 83/25/7 84/27/7 168/18/7 167/17/7
f 76/26/7 77/28/7 161/13/7 160/12/7
f 84/27/8 85/5/8 169/8/8 168/18/8
f 77/28/8 78/1/8 162/4/8 161/13/8
s 1
f 1/29/9 5/30/10 2/31/11
f 2/31/11 5/30/10 3/32/12
f 3/32/12 5/30/10 4/33/13
f 4/33/13 5/30/10 6/34/14
f 6/34/14 5/30/10 7/35/15
f 7/35/15 5/30/10 8/36/16
f 8/36/16 5/30/10 1/29/9
f 113/37/17 108/38/18 22/39/19 21/40/20
f 9/41/21 13/42/10 10/43/22
f 10/43/22 13/42/10 11/44/23
f 11/44/23 13/42/10 12/45/24
f 12/45/24 13/42/10 14/46/25
f 14/46/25 13/42/10 15/47/26
f 15/47/26 13/42/10 16/48/27
f 16/48/27 13/42/10 9/41/21
f 106/49/28 101/50/29 26/51/30 25/52/31
f 29/53/19 30/54/32 44/55/33 43/56/34
f 21/57/20 22/58/19 36/59/34 35/60/35
f 114/61/28 109/62/29 19/63/30 18/64/31
f 107/65/18 102/66/36 30/67/32 29/68/19
f 101/50/29 103/69/37 27/70/38 26/51/30
f 108/38/18 110/71/36 23/72/32 22/39/19
f 102/66/36 104/73/39 24/74/40 30/67/32
f 109/62/29 111/75/37 20/76/38 19/63/30
f 110/71/36 112/77/39 17/78/40 23/72/32
f 104/73/39 106/49/28 25/52/31 24/74/40
f 103/69/37 105/79/17 28/80/20 27/70/38
f 112/77/39 114/61/28 18/64/31 17/78/40
f 111/75/37 113/37/17 21/40/20 20/76/38
f 105/79/17 107/65/18 29/68/19 28/80/20
f 37/81/33 31/82/41 45/83/42 51/84/43
f 44/85/33 38/86/41 52/87/42 58/88/43
f 22/58/19 23/89/32 37/90/33 36/59/34
f 30/54/32 24/91/40 38/92/41 44/55/33
f 23/89/32 17/93/40 31/94/41 37/90/33
f 24/91/40 25/95/31 39/96/44 38/92/41
f 17/93/40 18/97/31 32/98/44 31/94/41
f 25/95/31 26/99/30 40/100/45 39/96/44
f 18/97/31 19/101/30 33/102/45 32/98/44
f 26/99/30 27/103/38 41/104/46 40/100/45
f 19/101/30 20/105/38 34/106/46 33/102/45
f 27/103/38 28/107/20 42/108/35 41/104/46
f 20/105/38 21/57/20 35/60/35 34/106/46
f 28/107/20 29/53/19 43/56/34 42/108/35
f 45/109/42 46/110/47 60/111/48 59/112/49
f 52/113/42 53/114/47 67/115/48 66/116/49
f 38/86/41 39/117/44 53/118/47 52/87/42
f 31/82/41 32/119/44 46/120/47 45/83/42
f 39/117/44 40/121/45 54/122/50 53/118/47
f 32/119/44 33/123/45 47/124/50 46/120/47
f 40/121/45 41/125/46 55/126/51 54/122/50
f 33/123/45 34/127/46 48/128/51 47/124/50
f 41/125/46 42/129/35 56/130/52 55/126/51
f 34/127/46 35/131/35 49/132/52 48/128/51
f 42/129/35 43/133/34 57/134/53 56/130/52
f 35/131/35 36/135/34 50/136/53 49/132/52
f 43/133/34 44/85/33 58/88/43 57/134/53
f 36/135/34 37/81/33 51/84/43 50/136/53
f 61/137/54 62/138/55 76/26/56 75/24/57
f 68/139/54 69/140/55 83/25/56 82/23/57
f 53/114/47 54/141/50 68/139/54 67/115/48
f 46/110/47 47/142/50 61/137/54 60/111/48
f 54/141/50 55/143/51 69/140/55 68/139/54
f 47/142/50 48/144/51 62/138/55 61/137/54
f 55/143/51 56/145/52 70/146/58 69/140/55
f 48/144/51 49/147/52 63/148/58 62/138/55
f 56/145/52 57/149/53 71/150/59 70/146/58
f 49/147/52 50/151/53 64/152/59 63/148/58
f 57/149/53 58/153/43 72/154/60 71/150/59
f 50/151/53 51/155/43 65/156/60 64/152/59
f 58/153/43 52/113/42 66/116/49 72/154/60
f 51/155/43 45/109/42 59/112/49 65/156/60
f 69/140/55 70/146/58 84/27/61 83/25/56
f 62/138/55 63/148/58 77/28/61 76/26/56
f 70/146/58 71/150/59 85/5/62 84/27/61
f 63/148/58 64/152/59 78/1/62 77/28/61
f 71/150/59 72/154/60 86/6/63 85/5/62
f 64/152/59 65/156/60 79/2/63 78/1/62
f 72/154/60 66/116/49 80/19/64 86/6/63
f 65/156/60 59/112/49 73/20/64 79/2/63
f 66/116/49 67/115/48 81/21/65 80/19/64
f 59/112/49 60/111/48 74/22/65 73/20/64
f 67/115/48 68/139/54 82/23/57 81/21/65
f 60/111/48 61/137/54 75/24/57 74/22/65
f 156/157/66 151/158/67 90/159/68 93/160/69
f 154/161/70 156/157/66 93/160/69 91/162/71
f 155/163/72 150/164/73 88/165/74 92/166/75
f 153/167/76 155/163/72 92/166/75 89/168/77
f 152/169/78 154/161/70 91/162/71 87/170/79
f 151/158/67 153/167/76 89/168/77 90/159/68
f 150/164/73 152/169/78 87/170/79 88/165/74
f 148/171/80 143/172/81 95/173/69 99/174/71
f 149/175/82 144/176/83 97/177/74 100/178/75
f 147/179/84 149/175/82 100/178/75 98/180/77
f 146/181/85 148/171/80 99/174/71 96/182/79
f 145/183/86 147/179/84 98/180/77 94/184/68
f 144/176/83 146/181/85 96/182/79 97/177/74
f 143/172/81 145/183/86 94/184/68 95/173/69
f 112/185/39 110/186/36 140/187/87 142/188/88
f 96/189/79 99/190/71 128/191/89 131/192/90
f 106/193/28 104/194/39 136/195/88 115/196/91
f 89/197/77 92/198/75 121/199/92 122/200/93
f 114/201/28 112/185/39 142/188/88 126/202/91
f 98/203/77 100/204/75 129/205/92 130/206/93
f 105/207/17 103/208/37 135/209/94 137/210/95
f 92/198/75 88/211/74 116/212/96 121/199/92
f 113/213/17 111/214/37 141/215/94 124/216/95
f 100/204/75 97/217/74 127/218/96 129/205/92
f 107/219/18 105/207/17 137/210/95 117/220/97
f 91/221/71 93/222/69 119/223/98 120/224/89
f 99/190/71 95/225/69 125/226/98 128/191/89
f 93/222/69 90/227/68 118/228/99 119/223/98
f 119/229/98 118/230/99 117/231/97 137/232/95
f 120/233/89 119/229/98 137/232/95 135/234/94
f 121/235/92 116/236/96 115/237/91 136/238/88
f 122/239/93 121/235/92 136/238/88 134/240/87
f 123/241/90 120/233/89 135/234/94 133/242/100
f 118/230/99 122/239/93 134/240/87 117/231/97
f 116/236/96 123/241/90 133/242/100 115/237/91
f 128/243/89 125/244/98 124/245/95 141/246/94
f 129/247/92 127/248/96 126/249/91 142/250/88
f 130/251/93 129/247/92 142/250/88 140/252/87
f 131/253/90 128/243/89 141/246/94 139/254/100
f 132/255/99 130/251/93 140/252/87 138/256/97
f 127/248/96 131/253/90 139/254/100 126/249/91
f 125/244/98 132/255/99 138/256/97 124/245/95
f 87/257/79 91/221/71 120/224/89 123/258/90
f 104/194/39 102/259/36 134/260/87 136/195/88
f 94/261/68 98/203/77 130/206/93 132/262/99
f 111/214/37 109/263/29 139/264/100 141/215/94
f 90/227/68 89/197/77 122/200/93 118/228/99
f 103/208/37 101/265/29 133/266/100 135/209/94
f 97/217/74 96/189/79 131/192/90 127/218/96
f 110/186/36 108/267/18 138/268/97 140/187/87
f 88/211/74 87/257/79 123/258/90 116/212/96
f 102/259/36 107/219/18 117/220/97 134/260/87
f 95/225/69 94/261/68 132/262/99 125/226/98
f 109/263/29 114/201/28 126/202/91 139/264/100
f 101/265/29 106/193/28 115/196/91 133/266/100
f 108/267/18 113/213/17 124/216/95 138/268/97
f 6/269/14 7/270/15 145/183/86 143/172/81
f 2/271/11 3/272/12 146/181/85 144/176/83
f 7/270/15 8/273/16 147/179/84 145/183/86
f 3/272/12 4/274/13 148/171/80 146/181/85
f 8/273/16 1/275/9 149/175/82 147/179/84
f 1/275/9 2/271/11 144/176/83 149/175/82
f 4/274/13 6/269/14 143/172/81 148/171/80
f 10/276/22 11/277/23 152/169/78 150/164/73
f 15/278/26 16/279/27 153/167/76 151/158/67
f 11/277/23 12/280/24 154/161/70 152/169/78
f 16/279/27 9/281/21 155/163/72 153/167/76
f 9/281/21 10/276/22 150/164/73 155/163/72
f 12/280/24 14/282/25 156/157/66 154/161/70
f 14/282/25 15/278/26 151/158/67 156/157/66
